<?xml version="1.0" encoding="UTF-8" standalone="no"?>
<!-- Created with Inkscape (http://www.inkscape.org/) -->

<svg
   xmlns:dc="http://purl.org/dc/elements/1.1/"
   xmlns:cc="http://creativecommons.org/ns#"
   xmlns:rdf="http://www.w3.org/1999/02/22-rdf-syntax-ns#"
   xmlns:svg="http://www.w3.org/2000/svg"
   xmlns="http://www.w3.org/2000/svg"
   xmlns:inkscape="http://www.inkscape.org/namespaces/inkscape"
   version="1.1"
   width="787.97498"
   height="141.35001"
   id="svg2"
   xml:space="preserve"><metadata
     id="metadata8"><rdf:RDF><cc:Work
         rdf:about=""><dc:format>image/svg+xml</dc:format><dc:type
           rdf:resource="http://purl.org/dc/dcmitype/StillImage" /></cc:Work></rdf:RDF></metadata><defs
     id="defs6"><clipPath
       id="clipPath18"><path
         d="M 0,1130.81 0,0 l 6303.79,0 0,1130.81 -6303.79,0 z"
         inkscape:connector-curvature="0"
         id="path20" /></clipPath></defs><g
     transform="matrix(1.25,0,0,-1.25,0,141.35)"
     id="g10"><g
       transform="scale(0.1,0.1)"
       id="g12"><g
         id="g14"><g
           clip-path="url(#clipPath18)"
           id="g16"><path
             d="m 4817.78,957.109 c 3.39,10.243 8.05,22.442 12.91,34.395 7.81,-3.606 16.87,-7.988 26.49,-12.547 -1.36,-4.641 -2.68,-9.25 -3.95,-13.801 -12.8,-1.015 -24.79,-3.808 -35.45,-8.047 z m -9.68,-3.449 c -9.72,-2.441 -16.12,-0.156 -16.65,1.152 -1.67,4.172 6.26,39.161 12.09,44.993 1.85,1.845 8.56,-0.215 18.21,-4.328 -5.23,-14.825 -10.17,-30.118 -13.65,-41.817 z m 11.9,92.5 c 2.18,2.5 9.39,-3.8 18.84,-8.67 -3.89,-7.28 -8.74,-19.12 -13.62,-32.38 -9.24,5.69 -15.33,10.09 -15.85,11.37 -1.67,4.17 4.57,22.76 10.63,29.68 z m 50.97,-26.11 c -3.58,-8.74 -7.66,-20.87 -11.61,-33.812 -9.05,4.512 -17.75,9.231 -25.26,13.586 5.44,13.086 10.65,25.006 14.07,32.676 6.8,-3.71 14.56,-8.04 22.8,-12.45 z m 35.48,-17.19 c -1.31,-7.286 -5.43,-19.102 -10.56,-32.118 -8.76,2.91 -18.17,6.785 -27.52,11.153 4.4,12.429 8.84,24.265 12.24,33.105 8.38,-4.31 17.1,-8.47 25.84,-12.14 z m 7.99,-3.251 c 3.4,-1.277 6.79,-2.492 10.14,-3.547 7.55,-2.371 14.65,-4.304 21.38,-5.898 -1.81,-7.059 -5.48,-16.961 -9.98,-27.879 -10.85,1.602 -20.71,3.309 -28.27,5.027 -1.07,0.247 -2.26,0.626 -3.37,0.918 4.33,12.5 7.99,23.907 10.1,31.379 z m 78.26,-14.797 c -3.02,-8.027 -6.33,-17.878 -13.5,-27.753 -11.43,1.113 -23.23,2.472 -34.34,3.976 3.89,10.742 7.19,20.422 9.31,27.332 17.3,-3.535 26.63,-3.75 38.53,-3.555 z m -42.55,-61.765 c -3.09,6.199 -7.6,11.941 -13.16,17.098 1.34,3.429 2.65,6.855 3.93,10.273 10.67,-1.191 21.57,-1.727 31.95,-1.914 -8.42,-11.094 -16.75,-20.938 -22.72,-25.457 z m -20.93,23.418 c -4.99,3.543 -10.54,6.707 -16.65,9.367 5.97,-1.781 12.41,-3.031 18.97,-4.066 -0.77,-1.766 -1.54,-3.524 -2.32,-5.301 z m -36.71,15.859 c -9.12,2.098 -18.81,3.321 -28.97,3.321 -0.25,0 -0.49,-0.032 -0.74,-0.04 1.01,3.067 2.05,6.141 3.12,9.247 8.79,-4.082 17.87,-8.086 26.9,-11.778 -0.1,-0.242 -0.21,-0.496 -0.31,-0.75 z m 148.32,23.114 c 4.88,1.437 6.44,7.218 6.04,3.546 -0.89,-8.152 -2.29,-27.922 -5.83,-33.339 -1.1,-1.7 -8.65,0.976 -17.09,1.043 1.04,7.343 6.05,17.824 16.88,28.75 z m -4.36,58.812 c -7.06,-10.45 -26.97,-39.44 -30.64,-39.44 -4.38,0 -21.88,1.25 -29.38,1.88 -7.5,0.62 -31.14,7.91 -34.89,9.16 -3.75,1.25 -16.25,4.69 -34.48,10.21 -16.92,5.13 -81.15,48.85 -80.52,53.23 0.34,2.36 2.5,8.43 3.55,13.33 0.22,1.12 0.44,2.31 0.72,3.76 2.5,13.33 12.18,19.68 12.18,19.68 0,0 5.53,5.41 4.7,9.58 -0.83,4.17 -5,6.67 -14.17,4.17 -9.17,-2.5 -35.83,-33.34 -43.33,-47.5 -7.5,-14.16 -20,-63.34 -22.5,-77.5 -2.14,-12.087 -6.07,-67.759 -6.15,-86.431 -1.05,-7.317 -14.48,-7.941 -14.17,-24.191 0.2,-10.508 13.15,-15.008 15,-16.563 -3.22,-2.129 -5.52,-6.922 -5.52,-10.313 0,-0.136 0.05,-0.261 0.06,-0.398 -43.21,-13.918 -75.6,-36.621 -84.11,-58.125 l 0.19,-2.414 20.32,0.313 2.81,-2.188 3.44,-4.375 0.62,-5.937 0,-0.958 c -1.66,-1.023 -3.8,-2.019 -6.13,-2.996 l -1.99,-0.109 c 0,0 -5,-0.937 -6.88,-1.25 -1.87,-0.313 -10.62,-1.563 -10.62,-1.563 l 0.27,-2.82 c 1.71,-2.539 4.06,-4.797 6.71,-6.914 0.96,-4.484 1.01,-7.637 5.31,-11.933 4.69,-4.688 6.77,-6.457 12.08,-9.583 4.69,-5.937 11.9,-7.421 22.73,-11.464 8.17,-5.586 30.9,-12.286 44.36,-12.286 9.82,0 24.24,1.008 37.96,6.184 5.89,2.566 8.75,6.016 13.08,6.942 4.37,0.937 8.32,3.593 11.46,0.753 l 0,-32.031 -5.83,-5.187 0,-40.828 c -3.17,-1.36 -7.53,-4.668 -10.9,-7.422 -1.39,0.222 -2.75,0.554 -4.2,0.664 l -75.36,5.652 c -3.18,0.539 -5.48,0.938 -6.21,1.106 -4.29,0.957 -19.17,-0.422 -25,-2.922 -4.47,-1.922 -51.94,-32.832 -73.74,-47.078 -1.11,-0.723 -2.04,-1.34 -3.02,-1.973 -4.03,-0.051 -7.78,-0.117 -9.49,-0.117 -4.17,0 -29.17,-1.231 -35.42,-1.66 -15.2,-1.047 -18.95,-10.84 -18.95,-10.84 -3.14,-8.36 -4.44,-10.508 -4.38,-17.707 -0.13,-1.219 -0.42,-7.871 -0.42,-9.121 l 0,-31.356 c -55.2,-56.25 -94.44,-142.266 -106.2,-241.574 l -7.46,0 c -14.43,121.797 -70.2,223.574 -146.04,274.98 -1.81,1.661 -4.42,3.313 -7.73,5 -0.81,0.508 -1.61,1.035 -2.43,1.524 -11.35,10.422 -27.05,21.347 -36.03,28.32 -12.18,9.465 -61.56,24.094 -91.96,34.395 -20.39,18.39 -41.72,44.601 -47.9,47.675 -4.27,2.141 -6.89,2.258 -9.69,1.758 6.03,8.938 11.48,22.551 13.23,27.813 1.76,5.265 3.08,31.32 3.08,31.32 3.09,6.621 4.85,10.156 10.59,14.121 0,0 11.58,9.539 14.56,13.672 5.57,7.742 9.26,19.852 13.24,30.437 0,0 7.94,28.567 7.94,33.887 0,10.188 -8.01,18.418 -18.05,18.957 l 2.16,17.313 3.14,12.57 -1.48,-2.648 3.64,20.519 c 0,0 0,33.086 2.65,51.621 2.64,18.524 -1.33,34.419 -2.65,46.329 -1.3,11.63 -58.01,54.71 -64.35,59.19 3.7,-4.05 5.78,-6.59 4.79,-6.25 -1.15,0.38 -4.9,2.96 -9.71,6.55 -2.27,-1.07 -4.81,-2.86 -8.82,-1.26 -6.63,2.65 -62.21,30.44 -66.19,33.09 -0.95,0.64 -2.14,0.96 -3.39,1.1 -6.17,5.51 -13.48,10.98 -9.84,7.67 3.64,-3.31 2.47,-3.98 5.44,-7.84 -2.3,-0.34 -4.11,-0.93 -4.11,-0.93 l -5.3,-9.26 -6.38,-2.4 c -4.57,4.92 -7.83,8.65 -8.17,9.68 -1.31,3.88 -1.95,-6.81 -0.11,-10.97 -6.85,0.43 -20.55,1.07 -26.92,-0.09 7.32,-3.23 12.13,-5.55 10.83,-5.66 -1.43,-0.11 -7.44,1.17 -14.9,3.09 -0.8,-1.17 -2.28,-2.6 -4.01,-4.05 -2.9,1.65 -5.09,2.77 -5.82,2.96 -0.8,0.19 1.08,-1.57 4.24,-4.24 -4.46,-3.53 -9.64,-6.86 -9.64,-6.86 0,0 -37.06,-21.17 -43.68,-27.79 -6.38,-6.38 -28.7,-55.723 -31.48,-63.985 -0.82,0.957 -1.36,1.672 -1.75,2.258 0.31,-2.746 -0.32,-6.73 -1.02,-8.996 0.14,-0.515 0.3,-1.015 0.5,-1.414 0.28,-0.558 0.81,-1.269 1.42,-2.043 -0.18,-13.418 0.56,-35.672 0.56,-35.672 0,0 5.3,-23.828 7.95,-33.097 l 2.64,-15.879 c -9.26,-7.938 -17.2,-15.887 -15.88,-25.145 1.32,-9.269 2.64,-29.121 2.64,-38.39 0,-9.258 -5.29,-29.11 1.33,-31.766 5.27,-2.109 14.67,-11.563 20.99,-10.07 1.43,-7.586 1.97,-19.024 2.17,-22.52 0.21,-3.496 1.66,-15.555 1.66,-15.555 0,0 5.79,-34.734 14.89,-43.175 0,0 0,-21.18 -1.33,-37.059 0,0 -47.65,-6.621 -66.17,-14.562 -18.54,-7.938 -25.15,-2.645 -35.74,-17.208 -10.59,-14.558 -33.09,-41.035 -37.07,-48.972 -0.27,-0.567 -0.41,-1.125 -0.64,-1.699 -7.21,-11.457 -15.05,-34.356 -21.33,-55.305 -47.27,-55.906 -80.57,-134.981 -91.24,-225.039 l -7.46,0 c -19.57,165.344 -115.33,293.808 -234.1,309.433 0.25,0.442 0.41,0.86 0.33,1.243 -0.25,1.113 -2.01,1.824 -4.73,2.195 2.11,1.711 3.25,3.223 2.9,4.289 -0.37,1.102 -2.19,1.609 -4.93,1.707 1.93,1.934 2.89,3.535 2.45,4.551 -0.49,1.055 -2.36,1.367 -5.09,1.191 1.71,2.121 2.53,3.809 1.94,4.797 -0.57,0.985 -2.46,1.102 -5.18,0.645 1.51,2.273 2.14,4.05 1.46,4.968 -0.67,0.918 -2.57,0.852 -5.21,0.098 1.25,2.434 1.68,4.277 0.92,5.09 -0.78,0.848 -2.63,0.586 -5.19,-0.41 0.98,2.527 1.23,4.383 0.39,5.144 -0.86,0.762 -2.7,0.305 -5.12,-0.957 0.71,2.61 0.76,4.504 -0.16,5.149 -0.91,0.672 -2.71,0.039 -4.98,-1.473 0.43,2.684 0.3,4.559 -0.68,5.125 -0.18,0.106 -0.51,-0.07 -0.74,-0.051 l 0.6,15.324 c 0.59,14.864 -10.97,27.364 -25.82,27.95 l -23.78,0.925 c -5.33,10.735 -15.01,19.29 -27,23.684 l 0.24,5.996 c 1.85,0.379 3.51,0.789 4.79,1.238 l 0.24,6.036 c -1.24,0.558 -2.87,1.093 -4.68,1.632 l 0.13,3.731 c 1.86,0.391 3.52,0.789 4.81,1.25 l 0.23,6.043 c -1.25,0.558 -2.87,1.094 -4.68,1.633 l 0.15,3.718 c 1.85,0.391 3.51,0.801 4.79,1.25 l 0.23,6.047 c -1.24,0.555 -2.85,1.094 -4.67,1.629 l 0.14,3.723 c 1.86,0.39 3.52,0.801 4.8,1.25 l 0.24,6.043 c -1.25,0.558 -2.87,1.094 -4.69,1.633 l 0.15,3.711 c 1.84,0.398 3.5,0.808 4.79,1.257 l 0.24,6.047 c -1.25,0.555 -2.87,1.094 -4.68,1.629 l 0.15,3.711 c 1.85,0.402 3.5,0.813 4.78,1.262 l 0.25,6.043 c -1.25,0.558 -2.86,1.094 -4.68,1.633 l 0.14,3.711 c 1.85,0.398 3.51,0.812 4.8,1.257 l 0.23,6.047 c -1.25,0.555 -2.87,1.094 -4.68,1.633 l 0.14,3.719 c 1.86,0.39 3.51,0.801 4.8,1.258 l 0.23,6.035 c -1.25,0.558 -2.87,1.093 -4.67,1.633 l 0.14,3.718 c 1.86,0.383 3.51,0.793 4.8,1.262 l 0.23,6.035 c -1.24,0.555 -2.86,1.094 -4.68,1.629 l 0.14,3.723 c 1.86,0.39 3.52,0.789 4.79,1.258 l 0.25,6.035 c -1.25,0.558 -2.87,1.093 -4.69,1.621 l 0.16,3.73 c 1.84,0.391 3.49,0.793 4.78,1.262 l 0.24,6.035 c -1.23,0.547 -2.85,1.094 -4.68,1.621 l 0.13,3.047 c 26.36,12.52 45.09,38.856 46.31,70.059 1.2,30.515 -14.77,57.539 -39.17,72.323 l 0.45,11.31 -6.07,0.23 0.91,23.03 -96.01,3.75 -0.9,-23.02 -8.53,0.33 -0.5,-12.62 c -24.15,-13.22 -41.03,-38.294 -42.19,-67.814 -1.1,-28.203 12.36,-53.594 33.67,-68.957 l -0.32,-8.133 c -1.26,-0.359 -2.38,-0.734 -3.21,-1.144 l -0.19,-4.649 c 0.8,-0.468 1.89,-0.937 3.12,-1.394 l -0.22,-5.461 c -1.26,-0.359 -2.37,-0.742 -3.21,-1.152 l -0.18,-4.637 c 0.81,-0.469 1.88,-0.938 3.11,-1.387 l -0.04,-0.851 c -10.97,-2.325 -19.52,-9.364 -22.08,-18.496 l -0.61,0.031 c 0.04,-0.52 0.19,-0.996 0.25,-1.504 -0.1,-0.52 -0.29,-0.977 -0.36,-1.496 l 0.61,-0.02 c 1.83,-9.304 9.79,-16.98 20.57,-20.164 l -0.04,-0.91 c -1.26,-0.359 -2.38,-0.742 -3.21,-1.141 l -0.19,-4.648 c 0.8,-0.469 1.89,-0.938 3.12,-1.398 l -0.22,-5.469 c -1.26,-0.352 -2.37,-0.731 -3.21,-1.133 l -0.17,-4.656 c 0.8,-0.461 1.87,-0.93 3.1,-1.387 l -0.21,-5.469 c -1.25,-0.351 -2.38,-0.742 -3.21,-1.133 l -0.18,-4.66 c 0.8,-0.457 1.88,-0.937 3.11,-1.386 l -0.21,-5.469 c -1.27,-0.352 -2.39,-0.742 -3.22,-1.133 l -0.18,-4.656 c 0.8,-0.461 1.88,-0.938 3.1,-1.387 l -0.2,-5.469 c -1.26,-0.351 -2.37,-0.742 -3.21,-1.144 l -0.18,-4.649 c 0.8,-0.457 1.88,-0.937 3.11,-1.386 l -0.22,-5.469 c -1.26,-0.352 -2.38,-0.742 -3.2,-1.141 l -0.2,-4.66 c 0.8,-0.457 1.9,-0.926 3.12,-1.375 l -0.2,-5.07 c -15.11,-2.207 -27.88,-10.946 -35.07,-23.035 l -19.59,0.773 c -14.84,0.574 -27.35,-10.988 -27.93,-25.844 l -0.91,-23.203 c -1.13,1.457 -2.17,2.246 -3.05,2.063 -1.1,-0.246 -1.81,-1.985 -2.21,-4.668 -1.71,2.148 -3.21,3.308 -4.3,2.949 -1.09,-0.352 -1.6,-2.16 -1.73,-4.875 -1.91,1.953 -3.53,2.941 -4.56,2.473 -1.05,-0.45 -1.37,-2.305 -1.22,-5.02 -2.12,1.738 -3.83,2.578 -4.82,2 -0.97,-0.566 -1.11,-2.441 -0.68,-5.125 -2.27,1.512 -4.05,2.148 -4.98,1.473 -0.92,-0.645 -0.87,-2.539 -0.15,-5.145 -2.43,1.27 -4.27,1.719 -5.12,0.957 -0.84,-0.762 -0.6,-2.617 0.39,-5.148 -2.56,0.996 -4.42,1.261 -5.19,0.41 -0.77,-0.809 -0.33,-2.656 0.92,-5.086 -2.65,0.75 -4.54,0.82 -5.22,-0.098 -0.68,-0.918 -0.05,-2.695 1.46,-4.972 -2.71,0.461 -4.61,0.343 -5.18,-0.641 -0.58,-0.98 0.24,-2.68 1.95,-4.789 -2.73,0.176 -4.61,-0.145 -5.08,-1.199 -0.46,-1.016 0.51,-2.617 2.44,-4.551 -2.74,-0.098 -4.57,-0.605 -4.94,-1.711 -0.35,-1.062 0.79,-2.578 2.91,-4.285 -2.72,-0.363 -4.48,-1.086 -4.74,-2.188 -0.17,-0.793 0.47,-1.73 1.66,-2.726 -109.29,-26.719 -195.44,-149.746 -213.88,-305.586 l -7.47,0 c -20.89,176.535 -128.64,311.047 -258.51,311.047 l -285.64,0 c -129.86,0 -237.61,-134.512 -258.51,-311.047 l -7.46,0 c -20.9,176.535 -128.65,311.047 -258.52,311.047 l -285.63,0 c -129.87,0 -237.62,-134.512 -258.52,-311.047 l -7.46,0 c -20.9,176.535 -128.65,311.047 -258.516,311.047 l -285.633,0 c -129.867,0 -237.617,-134.512 -258.516,-311.047 l -7.461,0 C 370.426,480.332 262.676,614.844 132.809,614.844 L 0,614.844 0,0 l 6303.79,0 0,613.242 C 6185.01,597.625 6089.24,469.148 6069.67,303.797 l -7.46,0 c -20.9,176.535 -128.65,311.047 -258.51,311.047 l -285.64,0 c -129.87,0 -237.62,-134.512 -258.51,-311.047 l -7.47,0 c -16.73,141.379 -89.19,255.723 -184.09,295.695 -6.17,5.457 -45.8,17.86 -64.03,27.403 -18.33,9.589 -61.67,22.5 -67.09,23.328 -4.04,0.617 -36.83,0.078 -53.22,-0.235 -0.32,1.114 -0.63,2.2 -0.94,3.157 -1.66,5 -12.5,9.167 -12.5,9.167 0,0 0,31.661 0,38.333 0,5.019 -6.13,7.675 -9.17,8.679 l 0,19.219 c 1.19,0.871 2.78,2.012 4.17,2.93 2.5,1.66 3.33,5.839 3.33,5.839 l 0.1,35.626 c 1.13,-0.008 2.1,3.535 3.25,3.535 11.54,0 23.23,-0.567 33,0.839 3.3,4.211 -1.25,8.126 9.57,7.708 l 19.49,-0.832 c 12.94,4.367 17.12,12.062 12.94,14.796 -7,4.578 -12.94,10.828 -26.36,17.02 0.54,0.422 1,0.859 1.34,1.308 5,6.672 75,30.833 108.34,66.661 33.34,35.832 45,101.672 45.83,115 0.83,13.327 -2.5,29.167 -5.83,36.667 -3.33,7.5 -9.38,20.74 -9.7,27.3 -0.28,5.88 1.36,11.03 0.53,16.87 -0.83,5.84 -9.17,2.5 -9.17,-1.67 l -15.4,-33.89"
             inkscape:connector-curvature="0"
             id="path22"
             style="fill:#000000;fill-opacity:1;fill-rule:nonzero;stroke:none" /></g></g></g></g></svg>